<svg width="163" height="117" viewBox="0 0 163 117" fill="none" xmlns="http://www.w3.org/2000/svg">
<path d="M8.5 41C8.5 36.9091 10 33.7504 11.5 30C14.5 23 11 23.5 12 9C18 12.5 19.5 13.5 24.5 20.5C33 18.5 35.5 19 43.5 21C48.5 13.5 49 14.5 56.5 9C61 19 61.0909 31.0907 56.3636 42.6816L57.5 44.5L60 43C64.7273 31.4091 66 14 59 2.5C49 9 48.5 8.49997 43 16C36.5 14 32.6761 13.5 25 15.5C20 9 16 6 8 2C4 17 9.59609 21.5689 6.5 29C4.9091 32.8184 3.5 37.3786 3.5 41.9543C3.5 47.3483 4.39394 52.7121 8 56.5C11.6364 60.2879 18.197 63.697 25.5 66L36 69C41.0303 70.5455 44.8788 72.0606 48 74C51.1212 75.9394 53.5455 77.9545 55 80.5C56.4545 83.0152 57 85.6667 57 89C57 93.3939 56.2424 97.1667 54 100.5C51.7879 103.833 48.0303 106.121 44 108C40 109.848 36.8333 110.5 31.5 110.5C26.3788 110.5 21.8182 110 18 108.272C14.2121 106.545 11.2121 104.061 9 101C6.78788 97.9394 5.80303 94.5 5.5 90.5L3.5 87.5L1 90.5C1.30303 95.0455 2.04545 99.4848 4.5 103C6.98485 106.485 10.2576 110 14.5 112C18.7424 113.97 24.8333 115 30.5 115C36.3788 115 42.0455 114.152 46.5 112C50.9545 109.848 56.0152 107.288 58.5 103.5C60.9848 99.7121 62.5 94.3485 62.5 89.5C62.5 86.6212 61.4394 82.8333 60.5 80.5C59.5606 78.1364 57.9394 75.4091 56 73.5C54.0909 71.5606 50.9394 69.5455 48 68C45.0606 66.4545 41.5303 65.2424 37.5 64L27 61C23.6667 59.9697 20.9848 58.803 18.5 57.5L18.4349 57.4646C16.0116 56.1484 14.1219 55.1219 12.5 53.5C10.8939 51.8333 9.78788 50 9 48C8.21212 46 8.5 43.3636 8.5 41Z" fill="black"/>
<circle cx="26.5" cy="34" r="2" fill="black" stroke="black"/>
<circle cx="42.5" cy="34" r="2" fill="black" stroke="black"/>
<path d="M78.08 112.928C73.8987 112.928 70.4853 111.904 67.84 109.856C65.28 107.893 64 105.461 64 102.56C64 99.488 65.0667 96.8427 67.2 94.624C69.3333 92.4053 72.1493 90.528 75.648 88.992C79.232 87.456 83.1147 86.176 87.296 85.152C91.4773 84.2133 95.616 83.488 99.712 82.976C103.893 82.464 107.691 82.08 111.104 81.824C114.517 81.6533 117.163 81.568 119.04 81.568C120.064 81.568 121.216 81.568 122.496 81.568C123.861 81.568 125.269 81.6107 126.72 81.696C129.024 78.112 131.157 74.1867 133.12 69.92C135.168 65.6533 136.789 61.3013 137.984 56.864C135.595 59.5947 132.949 62.3253 130.048 65.056C127.147 67.7867 124.544 69.7493 122.24 70.944C118.912 72.5653 115.029 74.016 110.592 75.296C106.24 76.6613 101.931 77.344 97.664 77.344C92.8 77.344 88.448 76.1067 84.608 73.632C80.768 71.072 78.2507 66.72 77.056 60.576C76.9707 60.064 76.8853 59.4667 76.8 58.784C76.7147 58.1013 76.672 57.4613 76.672 56.864C76.672 52.4267 77.696 47.9893 79.744 43.552C81.8773 39.1147 84.224 35.1893 86.784 31.776C82.5173 30.0693 78.976 28.0213 76.16 25.632C74.624 24.0107 73.344 22.2613 72.32 20.384C71.3813 18.4213 70.912 16.6293 70.912 15.008C70.912 12.448 71.808 10.272 73.6 8.48C75.392 6.688 78.0373 5.792 81.536 5.792C82.7307 5.792 84.096 5.92 85.632 6.176C87.168 6.34667 88.4053 6.64533 89.344 7.072C90.1973 7.41333 90.624 8.05333 90.624 8.992C90.624 9.58934 90.4107 10.144 89.984 10.656C89.6427 11.168 89.1307 11.424 88.448 11.424C88.2773 11.424 87.936 11.3387 87.424 11.168C86.4 10.7413 85.376 10.4853 84.352 10.4C83.328 10.2293 82.4747 10.144 81.792 10.144C79.6587 10.144 78.0373 10.6133 76.928 11.552C75.904 12.4053 75.392 13.5573 75.392 15.008C75.392 16.9707 76.544 19.232 78.848 21.792C81.2373 24.2667 84.864 26.4 89.728 28.192C93.7387 23.9253 98.432 19.9573 103.808 16.288C109.269 12.6187 115.243 9.67467 121.728 7.456C128.299 5.152 135.168 4 142.336 4C149.077 4 153.984 5.19467 157.056 7.584C160.213 9.888 161.792 12.6613 161.792 15.904C161.792 19.1467 160.256 22.4747 157.184 25.888C154.197 29.216 150.187 31.7333 145.152 33.44C141.739 34.5493 137.643 35.4453 132.864 36.128C128.085 36.8107 123.093 37.152 117.888 37.152C113.451 37.152 108.928 36.8533 104.32 36.256C99.7973 35.5733 95.5307 34.6347 91.52 33.44C90.4107 34.72 89.4293 36 88.576 37.28C86.4427 40.9493 84.6507 44.96 83.2 49.312C81.8347 53.5787 81.3227 57.12 81.664 59.936C82.6027 64.7147 84.5653 68.128 87.552 70.176C90.624 72.1387 94.08 73.12 97.92 73.12C101.675 73.12 105.557 72.4373 109.568 71.072C113.664 69.7067 117.163 68.3413 120.064 66.976C121.685 66.1227 123.52 64.8 125.568 63.008C127.616 61.216 129.621 59.2533 131.584 57.12C133.632 54.9013 135.424 52.7253 136.96 50.592C138.581 48.4587 139.733 46.624 140.416 45.088C140.843 44.1493 141.483 43.68 142.336 43.68C142.933 43.68 143.488 43.936 144 44.448C144.512 44.8747 144.768 45.5147 144.768 46.368C144 51.8293 142.507 57.8027 140.288 64.288C138.069 70.688 135.296 76.6613 131.968 82.208C135.467 82.72 138.795 83.488 141.952 84.512C145.195 85.6213 147.285 87.1573 148.224 89.12C148.395 89.376 148.48 89.76 148.48 90.272C148.48 90.9547 148.267 91.552 147.84 92.064C147.413 92.576 146.944 92.832 146.432 92.832C145.835 92.832 145.408 92.4907 145.152 91.808C144.384 90.528 142.379 89.4187 139.136 88.48C135.893 87.6267 132.523 86.944 129.024 86.432C128 87.7973 126.933 89.12 125.824 90.4C124.8 91.7653 123.691 93.0027 122.496 94.112C118.059 98.208 113.28 101.621 108.16 104.352C103.125 107.168 98.0053 109.301 92.8 110.752C87.68 112.203 82.7733 112.928 78.08 112.928ZM118.528 32.672C123.307 32.672 127.829 32.416 132.096 31.904C136.448 31.3067 140.245 30.4533 143.488 29.344C148.267 27.7227 151.723 25.8453 153.856 23.712C156.075 21.4933 157.184 19.36 157.184 17.312C157.184 14.9227 155.904 12.8747 153.344 11.168C150.784 9.376 147.115 8.48 142.336 8.48C133.461 8.48 124.8 10.4427 116.352 14.368C107.904 18.208 100.651 23.3707 94.592 29.856C98.176 30.88 102.016 31.6053 106.112 32.032C110.293 32.4587 114.432 32.672 118.528 32.672ZM78.08 108.32C83.3707 108.32 88.8747 107.296 94.592 105.248C100.309 103.285 105.728 100.597 110.848 97.184C115.968 93.856 120.277 90.1867 123.776 86.176C122.837 86.0053 121.941 85.92 121.088 85.92C120.32 85.92 119.637 85.92 119.04 85.92C112.299 85.92 105.472 86.3893 98.56 87.328C91.648 88.2667 85.0347 90.0587 78.72 92.704C74.9653 94.1547 72.32 95.776 70.784 97.568C69.248 99.4453 68.48 101.109 68.48 102.56C68.48 103.755 69.2053 104.992 70.656 106.272C72.1067 107.637 74.5813 108.32 78.08 108.32Z" fill="black"/>
</svg>
